
<svg  t="1714289385167" class="icon" viewBox="0 0 1024 1024" version="1.1" xmlns="http://www.w3.org/2000/svg" p-id="9490"
     xmlns:xlink="http://www.w3.org/1999/xlink" width="160" height="160">
    <path d="M541.013333 141.653333l-74.24-62.293333c-5.12-4.266667-13.653333-3.413333-17.92 1.706667-4.266667 5.12-3.413333 13.653333 1.706667 17.92l47.786667 40.106666C296.96 148.48 136.533333 314.88 136.533333 518.826667c0 141.653333 77.653333 270.506667 203.093334 336.213333 1.706667 0.853333 4.266667 1.706667 5.973333 1.706667 4.266667 0 9.386667-2.56 11.093333-6.826667 3.413333-5.973333 0.853333-13.653333-5.12-17.066667C234.666667 770.56 162.133333 650.24 162.133333 518.826667 162.133333 326.826667 314.88 170.666667 505.173333 164.693333L460.8 217.6c-4.266667 5.12-3.413333 13.653333 1.706667 17.92 2.56 1.706667 5.12 3.413333 8.533333 3.413333s7.68-1.706667 10.24-4.266666l62.293333-74.24c4.266667-5.973333 3.413333-13.653333-2.56-18.773334M896 518.826667c0-141.653333-77.653333-270.506667-203.093333-336.213334-5.973333-3.413333-13.653333-0.853333-17.066667 5.12-3.413333 5.973333-0.853333 13.653333 5.12 17.066667C797.866667 266.24 870.4 386.56 870.4 518.826667c0 192-153.6 348.16-343.893333 354.133333l41.813333-49.493333c4.266667-5.12 3.413333-13.653333-1.706667-17.92-5.12-4.266667-13.653333-3.413333-17.92 1.706666l-62.293333 74.24c-4.266667 5.12-3.413333 13.653333 1.706667 17.92l74.24 62.293334c2.56 1.706667 5.12 3.413333 8.533333 3.413333s7.68-1.706667 10.24-4.266667c4.266667-5.12 4.266667-13.653333-1.706667-17.92l-51.2-42.666666c203.946667-8.533333 367.786667-175.786667 367.786667-381.44m-64.853333 281.6c40.96-46.08 72.533333-101.546667 89.6-160.426667 1.706667-6.826667-1.706667-13.653333-8.533334-16.213333-6.826667-1.706667-13.653333 1.706667-16.213333 8.533333-16.213333 55.466667-46.08 107.52-84.48 151.04-5.12 5.12-4.266667 13.653333 0.853333 17.92 2.56 2.56 5.12 3.413333 8.533334 3.413333 4.266667 0 7.68-1.706667 10.24-4.266666M133.973333 667.306667c6.826667-2.56 10.24-9.386667 7.68-16.213334-1.706667-5.12-3.413333-11.093333-5.12-16.213333-1.706667-6.826667-9.386667-10.24-16.213333-8.533333-6.826667 1.706667-10.24 9.386667-8.533333 16.213333 1.706667 5.973333 3.413333 11.946667 5.973333 17.92 1.706667 5.12 6.826667 8.533333 11.946667 8.533333 1.706667-0.853333 3.413333-1.706667 4.266666-1.706666M110.933333 591.36c-5.973333 0-11.946667-4.266667-12.8-11.093333-2.56-20.48-4.266667-40.96-4.266666-61.44 0-161.28 89.6-306.346667 234.666666-378.026667 5.973333-3.413333 13.653333-0.853333 17.066667 5.973333s0.853333 13.653333-5.973333 17.066667C203.946667 230.4 119.466667 366.933333 119.466667 518.826667c0 19.626667 1.706667 39.253333 4.266666 58.026666 0.853333 6.826667-3.413333 13.653333-11.093333 14.506667H110.933333"
          fill="#C2D9FF" p-id="9491"></path>
    <path d="M593.066667 770.56c-11.946667 0-21.333333-9.386667-21.333334-21.333333v-80.213334-1.706666c0.853333-13.653333-3.413333-27.306667-13.653333-37.546667-5.973333-5.973333-7.68-14.506667-5.12-22.186667 2.56-7.68 9.386667-12.8 17.92-13.653333 59.733333-6.826667 114.346667-26.453333 114.346667-123.733333 0-23.893333-8.533333-46.08-25.6-63.146667-5.973333-5.973333-7.68-14.506667-4.266667-22.186667 5.973333-15.36 6.826667-32.426667 3.413333-48.64-10.24 2.56-28.16 8.533333-53.76 26.453334-5.12 3.413333-11.093333 4.266667-17.066666 2.56-43.52-11.946667-90.453333-11.946667-133.973334 0-5.973333 1.706667-11.946667 0.853333-17.066666-2.56-26.453333-17.92-43.52-23.893333-53.76-26.453334-3.413333 16.213333-2.56 32.426667 3.413333 48.64 2.56 7.68 0.853333 16.213333-4.266667 22.186667-16.213333 17.066667-25.6 40.106667-25.6 63.146667 0 96.426667 55.466667 116.906667 114.346667 123.733333 7.68 0.853333 14.506667 6.826667 17.066667 13.653333 2.56 7.68 0.853333 16.213333-5.12 22.186667-9.386667 10.24-14.506667 23.04-13.653334 36.693333V748.373333c0 11.946667-9.386667 21.333333-21.333333 21.333334S426.666667 760.32 426.666667 748.373333v-35.84c-62.293333 9.386667-88.746667-24.746667-106.666667-47.786666-7.68-10.24-14.506667-18.773333-22.186667-20.48-11.093333-2.56-18.773333-14.506667-15.36-25.6 2.56-11.093333 14.506667-18.773333 25.6-15.36 21.333333 5.12 34.133333 21.333333 45.226667 35.84 17.066667 21.333333 30.72 39.253333 73.386667 30.72v-0.853334c-0.853333-13.653333 1.706667-26.453333 5.973333-38.4-58.026667-13.653333-119.466667-49.493333-119.466667-160.426666 0-30.72 10.24-59.733333 28.16-83.626667-6.826667-27.306667-5.12-55.466667 5.973334-81.92 2.56-5.973333 7.68-10.24 13.653333-11.946667 7.68-2.56 35.84-6.826667 90.453333 28.16 45.226667-10.24 92.16-10.24 137.386667 0 54.613333-34.986667 83.626667-30.72 90.453333-28.16 5.973333 1.706667 11.093333 5.973333 13.653334 11.946667 11.093333 25.6 13.653333 54.613333 5.973333 81.92 18.773333 23.893333 28.16 52.053333 28.16 82.773333 0 117.76-70.826667 150.186667-119.466667 161.28 4.266667 11.946667 6.826667 25.6 5.973334 38.4v79.36c0.853333 12.8-8.533333 22.186667-20.48 22.186667"
          fill="#3884FF" p-id="9492"></path>
</svg>
