<svg width="54" height="19" viewBox="0 0 54 19" fill="none" xmlns="http://www.w3.org/2000/svg">
    <g clip-path="url(#clip0_406_112)">
        <path d="M8.24987 15.125C8.04426 15.125 7.83855 15.0465 7.68185 14.8896L2.86042 10.0681C2.54653 9.75425 2.54653 9.24574 2.86042 8.93185L7.68185 4.11042C7.99574 3.79653 8.50425 3.79653 8.81815 4.11042C9.13204 4.42432 9.13204 4.93283 8.81815 5.24672L4.56475 9.5L8.81865 13.7539C9.13255 14.0678 9.13255 14.5763 8.81865 14.8902C8.6617 15.0472 8.45579 15.125 8.24987 15.125Z" fill="#3294F8"/>
    </g>
    <path d="M21.74 13C21.476 13 21.272 12.932 21.128 12.796C20.992 12.652 20.924 12.448 20.924 12.184V5.356C20.924 5.092 20.992 4.892 21.128 4.756C21.272 4.612 21.476 4.54 21.74 4.54H24.62C25.212 4.54 25.716 4.628 26.132 4.804C26.548 4.98 26.864 5.232 27.08 5.56C27.304 5.888 27.416 6.28 27.416 6.736C27.416 7.248 27.268 7.68 26.972 8.032C26.676 8.384 26.272 8.62 25.76 8.74V8.56C26.352 8.648 26.812 8.872 27.14 9.232C27.468 9.592 27.632 10.06 27.632 10.636C27.632 11.388 27.376 11.972 26.864 12.388C26.36 12.796 25.656 13 24.752 13H21.74ZM22.4 11.836H24.56C25.104 11.836 25.504 11.732 25.76 11.524C26.016 11.308 26.144 10.988 26.144 10.564C26.144 10.132 26.016 9.812 25.76 9.604C25.504 9.396 25.104 9.292 24.56 9.292H22.4V11.836ZM22.4 8.128H24.356C24.884 8.128 25.276 8.028 25.532 7.828C25.796 7.62 25.928 7.316 25.928 6.916C25.928 6.516 25.796 6.216 25.532 6.016C25.276 5.808 24.884 5.704 24.356 5.704H22.4V8.128ZM29.2111 13.096C29.0191 13.096 28.8631 13.052 28.7431 12.964C28.6311 12.876 28.5631 12.76 28.5391 12.616C28.5151 12.464 28.5431 12.296 28.6231 12.112L31.7911 5.092C31.8951 4.86 32.0191 4.696 32.1631 4.6C32.3151 4.496 32.4871 4.444 32.6791 4.444C32.8631 4.444 33.0271 4.496 33.1711 4.6C33.3231 4.696 33.4511 4.86 33.5551 5.092L36.7351 12.112C36.8231 12.296 36.8551 12.464 36.8311 12.616C36.8071 12.768 36.7391 12.888 36.6271 12.976C36.5151 13.056 36.3671 13.096 36.1831 13.096C35.9591 13.096 35.7831 13.044 35.6551 12.94C35.5351 12.828 35.4271 12.66 35.3311 12.436L34.5511 10.624L35.1991 11.044H30.1351L30.7831 10.624L30.0151 12.436C29.9111 12.668 29.8031 12.836 29.6911 12.94C29.5791 13.044 29.4191 13.096 29.2111 13.096ZM32.6551 6.208L30.9751 10.204L30.6631 9.82H34.6711L34.3711 10.204L32.6791 6.208H32.6551ZM41.817 13.12C40.937 13.12 40.181 12.944 39.549 12.592C38.925 12.232 38.445 11.728 38.109 11.08C37.773 10.424 37.605 9.652 37.605 8.764C37.605 8.1 37.701 7.504 37.893 6.976C38.085 6.44 38.361 5.984 38.721 5.608C39.081 5.224 39.521 4.932 40.041 4.732C40.569 4.524 41.161 4.42 41.817 4.42C42.257 4.42 42.689 4.476 43.113 4.588C43.537 4.7 43.909 4.86 44.229 5.068C44.397 5.172 44.509 5.3 44.565 5.452C44.621 5.596 44.633 5.74 44.601 5.884C44.569 6.02 44.501 6.136 44.397 6.232C44.301 6.328 44.177 6.384 44.025 6.4C43.881 6.408 43.721 6.356 43.545 6.244C43.297 6.084 43.029 5.968 42.741 5.896C42.453 5.824 42.161 5.788 41.865 5.788C41.297 5.788 40.817 5.904 40.425 6.136C40.033 6.368 39.737 6.704 39.537 7.144C39.337 7.584 39.237 8.124 39.237 8.764C39.237 9.396 39.337 9.936 39.537 10.384C39.737 10.832 40.033 11.172 40.425 11.404C40.817 11.636 41.297 11.752 41.865 11.752C42.169 11.752 42.469 11.716 42.765 11.644C43.061 11.564 43.341 11.444 43.605 11.284C43.781 11.18 43.937 11.136 44.073 11.152C44.217 11.16 44.337 11.208 44.433 11.296C44.529 11.384 44.593 11.496 44.625 11.632C44.657 11.76 44.649 11.896 44.601 12.04C44.553 12.176 44.457 12.296 44.313 12.4C43.993 12.632 43.609 12.812 43.161 12.94C42.721 13.06 42.273 13.12 41.817 13.12ZM46.8053 13.096C46.5573 13.096 46.3653 13.028 46.2293 12.892C46.1013 12.748 46.0373 12.552 46.0373 12.304V5.224C46.0373 4.968 46.1013 4.776 46.2293 4.648C46.3653 4.512 46.5573 4.444 46.8053 4.444C47.0533 4.444 47.2413 4.512 47.3693 4.648C47.5053 4.776 47.5733 4.968 47.5733 5.224V8.284H47.5973L51.0413 4.828C51.1693 4.7 51.2973 4.604 51.4253 4.54C51.5533 4.476 51.6973 4.444 51.8573 4.444C52.0893 4.444 52.2533 4.504 52.3493 4.624C52.4533 4.744 52.4933 4.884 52.4693 5.044C52.4533 5.204 52.3773 5.352 52.2413 5.488L48.7373 8.956L48.7493 8.26L52.4093 11.98C52.5773 12.14 52.6653 12.308 52.6733 12.484C52.6813 12.66 52.6253 12.808 52.5053 12.928C52.3933 13.04 52.2253 13.096 52.0013 13.096C51.8093 13.096 51.6533 13.056 51.5333 12.976C51.4213 12.896 51.2893 12.78 51.1373 12.628L47.5973 9.088H47.5733V12.304C47.5733 12.552 47.5093 12.748 47.3813 12.892C47.2533 13.028 47.0613 13.096 46.8053 13.096Z" fill="#3294F8"/>
    <defs>
        <clipPath id="clip0_406_112">
            <rect width="12" height="12" fill="white" transform="translate(0 3.5)"/>
        </clipPath>
    </defs>
</svg>
